<svg width="24" height="24" fill="none" xmlns="http://www.w3.org/2000/svg">
  <path d="M11.906 14.625a2.625 2.625 0 002.615-2.854l-2.843 2.844c.075.006.151.01.228.01zm8.69-10.745l-1.002-1a.188.188 0 00-.265 0l-2.562 2.563C15.353 4.72 13.764 4.359 12 4.359c-4.505 0-7.865 2.346-10.083 7.039a1.413 1.413 0 000 1.207c.886 1.866 1.953 3.361 3.2 4.487L2.639 19.57a.188.188 0 000 .265l1 1a.188.188 0 00.266 0l16.691-16.69a.186.186 0 00.04-.204.186.186 0 00-.04-.06zM7.78 12a4.125 4.125 0 016.068-3.64l-1.14 1.14a2.627 2.627 0 00-3.302 3.303l-1.14 1.14A4.103 4.103 0 017.781 12z" fill="#5A7184"/>
  <path d="M22.083 11.395c-.825-1.737-1.807-3.154-2.946-4.25l-3.378 3.378a4.127 4.127 0 01-5.33 5.33l-2.865 2.865c1.33.615 2.808.922 4.436.922 4.505 0 7.866-2.346 10.083-7.038a1.414 1.414 0 000-1.207z" fill="#5A7184"/>
</svg>
