<svg width="14" height="13" fill="none" xmlns="http://www.w3.org/2000/svg">
  <path d="M12.375 7.578l1.102-4.875A.583.583 0 0012.914 2H3.727L3.516.969C3.446.71 3.21.5 2.953.5H.563A.555.555 0 000 1.063v.375C0 1.766.234 2 .563 2H2.18l1.664 8.063a1.31 1.31 0 00-.656 1.124A1.31 1.31 0 004.5 12.5c.703 0 1.313-.586 1.313-1.313 0-.351-.165-.68-.399-.937h4.899a1.393 1.393 0 00-.376.938A1.31 1.31 0 0011.25 12.5c.703 0 1.313-.586 1.313-1.313 0-.515-.305-.96-.75-1.171l.117-.563a.568.568 0 00-.54-.703H5.11L4.944 8h6.867a.577.577 0 00.563-.422z" fill="#1565D8"/>
</svg>
