<svg width="70" height="62" fill="none" xmlns="http://www.w3.org/2000/svg">
  <path d="M63.438 30.75H52.5V22a8.723 8.723 0 018.75-8.75h1.094c1.777 0 3.281-1.367 3.281-3.281V3.406c0-1.777-1.504-3.281-3.281-3.281H61.25C49.082.125 39.375 9.969 39.375 22v32.813c0 3.69 2.871 6.562 6.563 6.562h17.5c3.554 0 6.562-2.871 6.562-6.563v-17.5c0-3.554-3.008-6.562-6.563-6.562zm-39.376 0H13.126V22a8.723 8.723 0 018.75-8.75h1.094c1.777 0 3.281-1.367 3.281-3.281V3.406c0-1.777-1.504-3.281-3.281-3.281h-1.094C9.707.125 0 9.969 0 22v32.813c0 3.69 2.871 6.562 6.563 6.562h17.5c3.554 0 6.562-2.871 6.562-6.563v-17.5c0-3.554-3.008-6.562-6.563-6.562z" fill="#FAAD13"/>
</svg>
