<svg width="15" height="15" fill="none" xmlns="http://www.w3.org/2000/svg">
  <path d="M13.333.738H1.302c-.531 0-.969.468-.969 1.03v11.97c0 .562.438 1 .969 1h12.031c.531 0 1-.438 1-1V1.768c0-.562-.469-1.03-1-1.03zm-8.781 12H2.49V6.08h2.062v6.657zM3.521 5.144c-.688 0-1.219-.531-1.219-1.188a1.22 1.22 0 011.219-1.218c.656 0 1.187.562 1.187 1.218 0 .657-.531 1.188-1.187 1.188zm8.812 7.594H10.24v-3.25c0-.75 0-1.75-1.062-1.75-1.094 0-1.25.843-1.25 1.718v3.282H5.864V6.08h1.97v.907h.03c.282-.532.97-1.094 1.97-1.094 2.093 0 2.5 1.406 2.5 3.187v3.657z" fill="#5A7184"/>
</svg>
