<svg width="15" height="15" fill="none" xmlns="http://www.w3.org/2000/svg">
  <path d="M7.333 4.144c-2 0-3.594 1.625-3.594 3.594 0 2 1.594 3.593 3.594 3.593a3.594 3.594 0 003.594-3.593c0-1.97-1.625-3.594-3.594-3.594zm0 5.937A2.34 2.34 0 014.99 7.738c0-1.282 1.032-2.313 2.344-2.313a2.307 2.307 0 012.313 2.313c0 1.312-1.032 2.343-2.313 2.343zm4.563-6.062a.84.84 0 00-.844-.844.84.84 0 00-.844.844.84.84 0 00.844.844.84.84 0 00.844-.844zm2.375.844c-.063-1.125-.313-2.125-1.125-2.938C12.333 1.113 11.333.863 10.208.8 9.052.738 5.583.738 4.427.8c-1.125.063-2.094.313-2.937 1.125C.677 2.738.427 3.738.365 4.863c-.063 1.156-.063 4.625 0 5.78.062 1.126.312 2.095 1.125 2.938.843.813 1.812 1.063 2.937 1.125 1.156.063 4.625.063 5.781 0 1.125-.062 2.125-.312 2.938-1.125.812-.843 1.062-1.812 1.125-2.937.062-1.156.062-4.625 0-5.781zm-1.5 7c-.219.625-.719 1.093-1.313 1.343-.937.375-3.125.282-4.125.282-1.031 0-3.219.093-4.125-.282a2.37 2.37 0 01-1.344-1.343c-.375-.907-.28-3.094-.28-4.125 0-1-.095-3.188.28-4.125A2.41 2.41 0 013.208 2.3c.906-.375 3.094-.281 4.125-.281 1 0 3.188-.094 4.125.281.594.219 1.063.719 1.313 1.313.375.937.281 3.125.281 4.125 0 1.03.094 3.218-.281 4.125z" fill="#5A7184"/>
</svg>
