<svg width="17" height="14" fill="none" xmlns="http://www.w3.org/2000/svg">
  <path d="M14.677 3.488A6.95 6.95 0 0016.302 1.8a6.15 6.15 0 01-1.875.5A3.206 3.206 0 0015.865.488a6.93 6.93 0 01-2.063.812A3.281 3.281 0 0011.396.269 3.28 3.28 0 008.114 3.55c0 .25.032.5.094.75A9.52 9.52 0 011.427.863 3.192 3.192 0 00.99 2.519c0 1.125.562 2.125 1.468 2.719-.531-.032-1.062-.157-1.5-.407v.032A3.285 3.285 0 003.583 8.08c-.25.063-.562.125-.844.125-.218 0-.406-.03-.624-.062a3.265 3.265 0 003.062 2.281 6.597 6.597 0 01-4.063 1.406c-.28 0-.53-.031-.78-.062 1.437.937 3.155 1.469 5.03 1.469 6.032 0 9.313-4.97 9.313-9.313v-.437z" fill="#5A7184"/>
</svg>
